<svg width="24" height="24" viewBox="0 0 24 24" fill="none" xmlns="http://www.w3.org/2000/svg">
<path d="M8 18H6V16H8V18Z" fill="#090808"/>
<path d="M14 18H10V16H14V18Z" fill="#090808"/>
<path d="M16 10H12V12H16V16H14V14H10V8H16V10Z" fill="#090808"/>
<path d="M8 14H6V12H8V14Z" fill="#090808"/>
<path d="M8 10H6V8H8V10Z" fill="#090808"/>
<path fill-rule="evenodd" clip-rule="evenodd" d="M22 22H2V2H22V22ZM4 6H6V8H4V10H6V12H4V14H6V16H4V18H6V20H18V18H20V16H18V14H20V10H18V8H20V6H18V4H16V6H14V4H12V6H10V4H8V6H6V4H4V6Z" fill="#090808"/>
</svg>
