<svg width="24" height="24" viewBox="0 0 24 24" fill="none" xmlns="http://www.w3.org/2000/svg">
<path d="M15 22H5V20H15V22Z" fill="black"/>
<path d="M5 20H3V18H5V20Z" fill="black"/>
<path d="M17 20H15V18H17V20Z" fill="black"/>
<path d="M3 18H1V10H3V18Z" fill="black"/>
<path d="M9 18H7V16H9V18Z" fill="black"/>
<path d="M13 18H11V16H13V18Z" fill="black"/>
<path d="M21 16V18H19V16H21Z" fill="black"/>
<path d="M7 16H5V14H7V16Z" fill="black"/>
<path d="M15 16H13V14H15V16Z" fill="black"/>
<path d="M23 16H21V14H23V16Z" fill="black"/>
<path d="M9 14H7V12H9V14Z" fill="black"/>
<path d="M17 14H15V12H17V14Z" fill="black"/>
<path d="M21 14H19V12H21V14Z" fill="black"/>
<path d="M5 10H3V8H5V10Z" fill="black"/>
<path d="M15 10H13V8H15V10Z" fill="black"/>
<path d="M7 8H5V6H7V8Z" fill="black"/>
<path d="M13 8H11V6H13V8Z" fill="black"/>
<path d="M9 6H7V4H9V6Z" fill="black"/>
<path d="M17 4H15V6H13V4H9V2H17V4Z" fill="black"/>
</svg>
