<svg width="20" height="20" viewBox="0 0 20 20" fill="none" xmlns="http://www.w3.org/2000/svg">
<g clip-path="url(#clip0_13_334)">
<path d="M5.99951 2.99994H7.99951V4.99994H5.99951V2.99994Z" fill="black"/>
<path d="M3.99951 4.99994H5.99951V6.99994H3.99951V4.99994Z" fill="black"/>
<path d="M1.99951 6.99994H3.99951V8.99994H1.99951V6.99994Z" fill="black"/>
<path d="M-0.000488281 8.99994H1.99951V10.9999H-0.000488281V8.99994Z" fill="black"/>
<path d="M1.99951 10.9999H3.99951V12.9999H1.99951V10.9999Z" fill="black"/>
<path d="M3.99951 12.9999H5.99951V14.9999H3.99951V12.9999Z" fill="black"/>
<path d="M5.99951 14.9999H7.99951V16.9999H5.99951V14.9999Z" fill="black"/>
<path d="M13.9995 2.99994H11.9995V4.99994H13.9995V2.99994Z" fill="black"/>
<path d="M15.9995 4.99994H13.9995V6.99994H15.9995V4.99994Z" fill="black"/>
<path d="M17.9995 6.99994H15.9995V8.99994H17.9995V6.99994Z" fill="black"/>
<path d="M19.9995 8.99994H17.9995V10.9999H19.9995V8.99994Z" fill="black"/>
<path d="M17.9995 10.9999H15.9995V12.9999H17.9995V10.9999Z" fill="black"/>
<path d="M15.9995 12.9999H13.9995V14.9999H15.9995V12.9999Z" fill="black"/>
<path d="M13.9995 14.9999H11.9995V16.9999H13.9995V14.9999Z" fill="black"/>
</g>
<defs>
<clipPath id="clip0_13_334">
<rect width="20" height="20" fill="white"/>
</clipPath>
</defs>
</svg>
