<svg width="20" height="20" viewBox="0 0 20 20" fill="none" xmlns="http://www.w3.org/2000/svg">
<g clip-path="url(#clip0_13_388)">
<path d="M20 20H18V18H20V20Z" fill="black"/>
<path d="M18 18H16V16H18V18Z" fill="black"/>
<path d="M12 16H4V14H12V16Z" fill="black"/>
<path d="M16 16H14V14H16V16Z" fill="black"/>
<path d="M4 14H2V12H4V14Z" fill="black"/>
<path d="M14 14H12V12H14V14Z" fill="black"/>
<path d="M2 12H0V4H2V12Z" fill="black"/>
<path d="M16 12H14V4H16V12Z" fill="black"/>
<path d="M4 4H2V2H4V4Z" fill="black"/>
<path d="M14 4H12V2H14V4Z" fill="black"/>
<path d="M12 2H4V0H12V2Z" fill="black"/>
</g>
<defs>
<clipPath id="clip0_13_388">
<rect width="20" height="20" fill="white"/>
</clipPath>
</defs>
</svg>
