<svg width="24" height="24" viewBox="0 0 24 24" fill="none" xmlns="http://www.w3.org/2000/svg">
<path d="M18 22H8V20H18V22Z" fill="black"/>
<path d="M8 20H6V18H8V20Z" fill="black"/>
<path d="M20 20H18V18H20V20Z" fill="black"/>
<path d="M6 18H4V16H6V18Z" fill="black"/>
<path d="M22 18H20V14H18V12H20V10H22V18Z" fill="black"/>
<path d="M4 16H2V6H4V16Z" fill="black"/>
<path d="M18 16H12V14H18V16Z" fill="black"/>
<path d="M12 14H10V12H12V14Z" fill="black"/>
<path d="M10 12H8V6H10V12Z" fill="black"/>
<path d="M6 6H4V4H6V6Z" fill="black"/>
<path d="M14 4H12V6H10V4H6V2H14V4Z" fill="black"/>
</svg>
