<svg width="20" height="20" viewBox="0 0 20 20" fill="none" xmlns="http://www.w3.org/2000/svg">
<path d="M12 18H14V20H6V18H8V16H10V14H12V18Z" fill="#090808"/>
<path d="M6 18H4V16H6V18Z" fill="#090808"/>
<path d="M16 18H14V16H16V18Z" fill="#090808"/>
<path d="M4 16H2V14H4V16Z" fill="#090808"/>
<path d="M20 14H18V16H16V14H14V12H12V8H18V6H20V14Z" fill="#090808"/>
<path d="M6 4H10V6H12V8H8V10H6V14H4V10H2V14H0V6H2V4H4V2H6V4Z" fill="#090808"/>
<path d="M18 6H16V4H18V6Z" fill="#090808"/>
<path d="M16 4H14V2H16V4Z" fill="#090808"/>
<path d="M14 2H6V0H14V2Z" fill="#090808"/>
</svg>
