<svg width="24" height="24" viewBox="0 0 24 24" fill="none" xmlns="http://www.w3.org/2000/svg">
<g clip-path="url(#clip0_22_430)">
<path d="M13 24H11V20H13V24Z" fill="black"/>
<path d="M4 22H2V20H4V22Z" fill="black"/>
<path d="M22 22H20V20H22V22Z" fill="black"/>
<path d="M6 20H4V18H6V20Z" fill="black"/>
<path d="M20 20H18V18H20V20Z" fill="black"/>
<path d="M16 18H8V16H16V18Z" fill="black"/>
<path d="M8 16H6V8H8V16Z" fill="black"/>
<path d="M18 16H16V8H18V16Z" fill="black"/>
<path d="M4 13H0V11H4V13Z" fill="black"/>
<path d="M24 13H20V11H24V13Z" fill="black"/>
<path d="M16 8H8V6H16V8Z" fill="black"/>
<path d="M6 6H4V4H6V6Z" fill="black"/>
<path d="M20 6H18V4H20V6Z" fill="black"/>
<path d="M4 4H2V2H4V4Z" fill="black"/>
<path d="M13 4H11V0H13V4Z" fill="black"/>
<path d="M22 4H20V2H22V4Z" fill="black"/>
</g>
<defs>
<clipPath id="clip0_22_430">
<rect width="24" height="24" fill="white"/>
</clipPath>
</defs>
</svg>
