<svg width="24" height="24" viewBox="0 0 24 24" fill="none" xmlns="http://www.w3.org/2000/svg">
<path d="M16 22H8V20H16V22Z" fill="#090808"/>
<path d="M8 20H6V18H8V20Z" fill="#090808"/>
<path d="M18 20H16V18H18V20Z" fill="#090808"/>
<path d="M6 18H4V12H6V18Z" fill="#090808"/>
<path d="M14 18H12V16H14V18Z" fill="#090808"/>
<path d="M20 18H18V10H20V18Z" fill="#090808"/>
<path d="M16 16H14V14H16V16Z" fill="#090808"/>
<path d="M8 12H6V10H8V12Z" fill="#090808"/>
<path d="M10 10H8V8H10V10Z" fill="#090808"/>
<path d="M18 10H16V6H18V10Z" fill="#090808"/>
<path d="M14 4H12V8H10V4H8V2H14V4Z" fill="#090808"/>
<path d="M16 6H14V4H16V6Z" fill="#090808"/>
</svg>
