<svg width="24" height="24" viewBox="0 0 24 24" fill="none" xmlns="http://www.w3.org/2000/svg">
<path d="M4 22H2V20H4V22Z" fill="#090808"/>
<path d="M10 22H8V20H10V22Z" fill="#090808"/>
<path d="M16 22H14V20H16V22Z" fill="#090808"/>
<path d="M22 22H18V20H20V18H22V22Z" fill="#090808"/>
<path fill-rule="evenodd" clip-rule="evenodd" d="M18 18H2V2H18V18ZM10 10H4V16H10V10H16V4H10V10Z" fill="#090808"/>
<path d="M22 16H20V14H22V16Z" fill="#090808"/>
<path d="M22 10H20V8H22V10Z" fill="#090808"/>
<path d="M22 4H20V2H22V4Z" fill="#090808"/>
</svg>
