<svg width="20" height="20" viewBox="0 0 20 20" fill="none" xmlns="http://www.w3.org/2000/svg">
<path d="M15 19H5V17H15V19Z" fill="black"/>
<path d="M5 17H3V15H5V17Z" fill="black"/>
<path d="M17 17H15V15H17V17Z" fill="black"/>
<path d="M3 15H1V5H3V15Z" fill="black"/>
<path d="M19 15H17V5H19V15Z" fill="black"/>
<path d="M9 13H7V11H9V13Z" fill="black"/>
<path d="M11 11H9V9H11V11Z" fill="black"/>
<path d="M13 9H11V7H13V9Z" fill="black"/>
<path d="M5 5H3V3H5V5Z" fill="black"/>
<path d="M17 5H15V3H17V5Z" fill="black"/>
<path d="M15 3H5V1H15V3Z" fill="black"/>
</svg>
