<svg width="24" height="24" viewBox="0 0 24 24" fill="none" xmlns="http://www.w3.org/2000/svg">
<path d="M12 22H6V20H12V22Z" fill="black"/>
<path d="M6 20H4V18H6V20Z" fill="black"/>
<path d="M14 20H12V18H14V20Z" fill="black"/>
<path d="M4 18H2V8H4V18Z" fill="black"/>
<path d="M12 18H10V16H12V18Z" fill="black"/>
<path d="M20 16H12V14H20V16Z" fill="black"/>
<path d="M22 14H20V6H22V14Z" fill="black"/>
<path d="M8 12H6V10H8V12Z" fill="black"/>
<path d="M18 12H16V10H18V12Z" fill="black"/>
<path d="M6 8H4V6H6V8Z" fill="black"/>
<path d="M10 8H8V6H10V8Z" fill="black"/>
<path d="M16 8H14V6H16V8Z" fill="black"/>
<path d="M8 6H6V4H8V6Z" fill="black"/>
<path d="M20 6H18V4H20V6Z" fill="black"/>
<path d="M18 4H8V2H18V4Z" fill="black"/>
</svg>
