<svg width="20" height="20" viewBox="0 0 20 20" fill="none" xmlns="http://www.w3.org/2000/svg">
<path d="M5 17H3V15H5V17Z" fill="black"/>
<path d="M17 17H15V15H17V17Z" fill="black"/>
<path d="M7 15H5V13H7V15Z" fill="black"/>
<path d="M15 15H13V13H15V15Z" fill="black"/>
<path d="M9 13H7V11H9V13Z" fill="black"/>
<path d="M13 13H11V11H13V13Z" fill="black"/>
<path d="M11 11H9V9H11V11Z" fill="black"/>
<path d="M9 9H7V7H9V9Z" fill="black"/>
<path d="M13 9H11V7H13V9Z" fill="black"/>
<path d="M7 7H5V5H7V7Z" fill="black"/>
<path d="M15 7H13V5H15V7Z" fill="black"/>
<path d="M5 5H3V3H5V5Z" fill="black"/>
<path d="M17 5H15V3H17V5Z" fill="black"/>
</svg>
