<svg width="24" height="24" viewBox="0 0 24 24" fill="none" xmlns="http://www.w3.org/2000/svg">
<path d="M13 22H11V20H13V22Z" fill="black"/>
<path d="M11 20H9V18H11V20Z" fill="black"/>
<path d="M15 20H13V18H15V20Z" fill="black"/>
<path d="M9 18H7V16H9V18Z" fill="black"/>
<path d="M17 18H15V16H17V18Z" fill="black"/>
<path d="M7 16H5V14H7V16Z" fill="black"/>
<path d="M19 16H17V14H19V16Z" fill="black"/>
<path d="M5 14H3V12H5V14Z" fill="black"/>
<path d="M21 14H19V12H21V14Z" fill="black"/>
<path d="M3 12H1V6H3V12Z" fill="black"/>
<path d="M23 12H21V6H23V12Z" fill="black"/>
<path d="M13 8H11V6H13V8Z" fill="black"/>
<path d="M5 6H3V4H5V6Z" fill="black"/>
<path d="M11 6H9V4H11V6Z" fill="black"/>
<path d="M15 6H13V4H15V6Z" fill="black"/>
<path d="M21 6H19V4H21V6Z" fill="black"/>
<path d="M9 4H5V2H9V4Z" fill="black"/>
<path d="M19 4H15V2H19V4Z" fill="black"/>
</svg>
