<svg width="20" height="20" viewBox="0 0 20 20" fill="none" xmlns="http://www.w3.org/2000/svg">
<g clip-path="url(#clip0_13_134)">
<path d="M2 18H6V20H0V14H2V18ZM8 18H6V16H8V18ZM6 16H4V14H6V16ZM10 16H8V14H10V16ZM4 14H2V12H4V14ZM12 14H10V12H12V14ZM6 12H4V10H6V12ZM14 12H12V10H14V12ZM18 2H20V6H16V8H18V12H16V10H14V8H12V6H10V4H8V2H12V4H14V0H18V2ZM8 10H6V8H8V10ZM10 8H8V6H10V8Z" fill="black"/>
</g>
<defs>
<clipPath id="clip0_13_134">
<rect width="20" height="20" fill="white"/>
</clipPath>
</defs>
</svg>
